<?xml version="1.0" encoding="utf-8"?>
<!-- Generator: Adobe Illustrator 23.0.1, SVG Export Plug-In . SVG Version: 6.00 Build 0)  -->
<svg version="1.1" id="Слой_1" xmlns="http://www.w3.org/2000/svg" xmlns:xlink="http://www.w3.org/1999/xlink" x="0px" y="0px"
	 viewBox="0 0 17 30" style="enable-background:new 0 0 17 30;" xml:space="preserve">
<style type="text/css">
	.st0{fill:#FAFAFA;}
</style>
<path class="st0" d="M15,0H2C0.9,0,0,0.9,0,2V28c0,1.1,0.9,2,2,2h13c1.1,0,2-0.9,2-2V2C17,0.9,16.1,0,15,0z M6.4,1.5h4.2
	c0.1,0,0.2,0.1,0.2,0.2c0,0.1-0.1,0.2-0.2,0.2H6.4C6.3,2,6.2,1.8,6.2,1.7C6.2,1.6,6.3,1.5,6.4,1.5z M8.5,29c-0.5,0-1-0.5-1-1
	c0-0.6,0.4-1,1-1c0.5,0,1,0.5,1,1C9.5,28.5,9,29,8.5,29z M15.6,26.3H1.4v-23h14.2V26.3z"/>
</svg>
