<?xml version="1.0" encoding="utf-8"?>
<!-- Generator: Adobe Illustrator 23.0.1, SVG Export Plug-In . SVG Version: 6.00 Build 0)  -->
<svg version="1.1" id="Слой_1" xmlns="http://www.w3.org/2000/svg" xmlns:xlink="http://www.w3.org/1999/xlink" x="0px" y="0px"
	 viewBox="0 0 31 30" style="enable-background:new 0 0 31 30;" xml:space="preserve">
<style type="text/css">
	.st0{fill:#FAFAFA;}
</style>
<path class="st0" d="M13.6,0.1C6.9,0.9,1.4,6.2,0.5,13c-1.3,9.6,6.6,17.7,16,17c3.5-0.3,6.7-1.8,9.3-4.2l0.2-0.2
	c0.3-0.2,0.3-0.6,0-0.9l-0.9-0.9c-0.2-0.3-0.6-0.3-0.9,0l-0.5,0.4c-2.8,2.7-6.7,3.8-10.7,3.2c-5.6-1-9.9-5.7-10.3-11.3
	C2.3,8.5,8.3,2.3,15.7,2.5c6.8,0.2,12.1,6,12.1,12.8v0.9c0,1.5-1.3,2.6-2.7,2.5c-1.3-0.1-2.2-1.3-2.2-2.6v-5.5
	c0-0.3-0.3-0.6-0.6-0.6H21c-0.3,0-0.5,0.1-0.6,0.4c-1.3-1.4-3.1-2.2-5.1-2.2c-3.8,0-6.9,3.1-6.9,6.9s3.1,6.9,6.9,6.9
	c2.4,0,4.5-1.2,5.7-3.1c0.9,1.6,2.7,2.6,4.6,2.4c2.7-0.2,4.7-2.5,4.7-5.2V15C30.3,6.2,22.7-0.9,13.6,0.1z M15.4,19.4
	c-2.4,0-4.4-2-4.4-4.4s2-4.4,4.4-4.4c2.4,0,4.4,2,4.4,4.4S17.8,19.4,15.4,19.4z"/>
</svg>
